<svg xmlns="http://www.w3.org/2000/svg" width="310" height="310" viewBox="0 0 310 310">
  <defs>
    <style>
      .cls-1 {
        fill: #0a192f;
        stroke: #64ffda;
        stroke-width: 10px;
      }

      .cls-1, .cls-2 {
        fill-rule: evenodd;
      }

      .cls-2 {
        fill: #64ffda;
      }
    </style>
  </defs>
  <path id="Rectangle_1_copy" data-name="Rectangle 1 copy" class="cls-1" d="M247.439,26.274l38.49,218.962L66.967,283.726,28.477,64.764Z"/>
  <path class="cls-1" d="M184.583,0.2L312,182.379,129.824,309.8,2.4,127.621Z"/>
  <path id="LY" class="cls-2" d="M156.066,207.4a13.779,13.779,0,0,0-1.406-3.143,4.09,4.09,0,0,0-1.6-1.546,2.946,2.946,0,0,0-1.856-.2l-40.6,8.115L89.845,106.779a2.833,2.833,0,0,0-1.007-1.666,4.656,4.656,0,0,0-2.4-.868,21.33,21.33,0,0,0-4.15,0,56.447,56.447,0,0,0-6.444.977,56.843,56.843,0,0,0-6.274,1.565,21.462,21.462,0,0,0-3.88,1.605,4.65,4.65,0,0,0-1.886,1.726,2.827,2.827,0,0,0-.289,1.925L86.937,229.251q0.877,4.391,3.51,5.886a8.319,8.319,0,0,0,5.925.838l59.153-11.822a2.768,2.768,0,0,0,1.626-.948,4.474,4.474,0,0,0,.858-2.194,15.611,15.611,0,0,0,.07-3.541A51.864,51.864,0,0,0,156.066,207.4ZM220.66,87.065a36.327,36.327,0,0,0,1.257-6.164q0.18-2.214-1.176-3.032t-4.549-.44q-3.192.38-8.878,1.515-4.29.857-6.843,1.575a14.611,14.611,0,0,0-3.93,1.615,5.377,5.377,0,0,0-1.935,1.995,8.049,8.049,0,0,0-.739,2.793L186,121.275q-0.978,4.968-1.956,10.453t-1.8,11.252l-0.2.039q-3.212-5.166-6.273-9.846t-6.074-8.848L149,95.475a12.2,12.2,0,0,0-1.9-2.005,5.274,5.274,0,0,0-2.634-.978,18.263,18.263,0,0,0-4.489.119q-2.784.35-7.371,1.266-5.487,1.1-8.529,1.964t-3.98,2.144a2.937,2.937,0,0,0,.019,3.212,32.373,32.373,0,0,0,3.591,5.248l49.368,63.267L182.14,215.1a2.977,2.977,0,0,0,.957,1.676,4.307,4.307,0,0,0,2.4.868,22.525,22.525,0,0,0,4.2-.01,68.879,68.879,0,0,0,12.718-2.542,21.322,21.322,0,0,0,3.881-1.605,4.637,4.637,0,0,0,1.885-1.726,2.825,2.825,0,0,0,.29-1.925L199.4,164.448Z"/>
</svg>
